<svg width="18" height="18" viewBox="0 0 18 18" fill="none" xmlns="http://www.w3.org/2000/svg">
<g clip-path="url(#clip0_843_1323)">
<path fill-rule="evenodd" clip-rule="evenodd" d="M14.5385 6.03977C14.8482 6.06527 15.0792 6.33602 15.0544 6.64577C15.0499 6.69677 14.6435 11.73 14.4095 13.8413C14.264 15.1515 13.3984 15.9488 12.0919 15.9728C11.0922 15.99 10.1277 15.9998 9.18495 15.9998C8.1687 15.9998 7.17795 15.9885 6.1977 15.9683C4.9437 15.9435 4.07595 15.1305 3.9342 13.8465C3.69795 11.7165 3.2937 6.69602 3.28995 6.64577C3.26445 6.33602 3.49545 6.06452 3.8052 6.03977C4.11045 6.03152 4.38645 6.24602 4.4112 6.55502C4.41359 6.58758 4.57886 8.6378 4.75895 10.6663L4.79512 11.0711C4.88582 12.0794 4.97777 13.0483 5.05245 13.7228C5.1327 14.4525 5.52645 14.829 6.22095 14.8433C8.09595 14.883 10.0092 14.8853 12.0717 14.8478C12.8097 14.8335 13.2087 14.4645 13.2912 13.7175C13.5237 11.622 13.9287 6.60602 13.9332 6.55502C13.9579 6.24602 14.2317 6.03002 14.5385 6.03977ZM10.7591 1C11.4475 1 12.0528 1.46425 12.2305 2.1295L12.4211 3.07525C12.4826 3.38528 12.7547 3.61169 13.0697 3.61667L15.531 3.61675C15.8415 3.61675 16.0935 3.86875 16.0935 4.17925C16.0935 4.48975 15.8415 4.74175 15.531 4.74175L13.0917 4.74164C13.0879 4.74171 13.0841 4.74175 13.0803 4.74175L13.062 4.741L5.28121 4.74166C5.27517 4.74172 5.26911 4.74175 5.26305 4.74175L5.2515 4.741L2.8125 4.74175C2.502 4.74175 2.25 4.48975 2.25 4.17925C2.25 3.86875 2.502 3.61675 2.8125 3.61675L5.27325 3.616L5.34902 3.6112C5.63123 3.57459 5.86578 3.36025 5.92305 3.07525L6.1053 2.16325C6.29055 1.46425 6.8958 1 7.5843 1H10.7591ZM10.7591 2.125H7.5843C7.4043 2.125 7.24605 2.24575 7.2003 2.419L7.02555 3.2965C7.00334 3.40765 6.971 3.51476 6.92961 3.61695H11.414C11.3725 3.51476 11.3401 3.40765 11.3178 3.2965L11.1355 2.3845C11.0973 2.24575 10.939 2.125 10.7591 2.125Z" fill="#605E5C"/>
</g>
<defs>
<clipPath id="clip0_843_1323">
<rect width="18" height="18" fill="white"/>
</clipPath>
</defs>
</svg>
