<svg width="19" height="18" viewBox="0 0 19 18" fill="none" xmlns="http://www.w3.org/2000/svg">
<path fill-rule="evenodd" clip-rule="evenodd" d="M15.5648 15.3297C15.8753 15.3297 16.1273 15.5817 16.1273 15.8922C16.1273 16.2027 15.8753 16.4547 15.5648 16.4547H10.1251C9.81456 16.4547 9.56256 16.2027 9.56256 15.8922C9.56256 15.5817 9.81456 15.3297 10.1251 15.3297H15.5648ZM12.0892 2.74023C12.1267 2.76948 13.3814 3.74448 13.3814 3.74448C13.8374 4.01598 14.1937 4.50123 14.3287 5.07573C14.4629 5.64423 14.3654 6.23073 14.0527 6.72648C14.0506 6.72979 14.0485 6.73305 14.0413 6.74277L14.0356 6.75028C13.9848 6.81719 13.7642 7.09623 12.6504 8.49167C12.64 8.50996 12.6283 8.52709 12.6155 8.54373C12.5967 8.56827 12.5763 8.59082 12.5545 8.61135C12.4785 8.707 12.3983 8.80751 12.3139 8.91318L12.1429 9.12728C11.7902 9.56901 11.3718 10.0928 10.8755 10.7141L10.6208 11.0329C9.66251 12.2323 8.43528 13.7679 6.86316 15.7347C6.51891 16.1637 6.00291 16.4135 5.44866 16.4202L2.71941 16.4547H2.71191C2.45166 16.4547 2.22516 16.2762 2.16441 16.022L1.55016 13.4187C1.42341 12.8795 1.54941 12.323 1.89516 11.891L8.96016 3.05448C8.96316 3.05148 8.96541 3.04773 8.96841 3.04473C9.74316 2.11848 11.1442 1.98198 12.0892 2.74023ZM8.17245 5.84025L2.77341 12.5937C2.64516 12.7542 2.59791 12.9612 2.64516 13.16L3.15591 15.3237L5.43516 15.2952C5.65191 15.293 5.85216 15.1962 5.98491 15.0312C6.66852 14.1759 7.5277 13.1009 8.41105 11.9955L8.72358 11.6044L9.03663 11.2127C9.86507 10.1759 10.6835 9.15155 11.3683 8.29415L8.17245 5.84025ZM9.83466 3.76248L8.8752 4.96125L12.0708 7.41445C12.6859 6.64402 13.0905 6.1366 13.1279 6.08823C13.2509 5.88873 13.2989 5.60673 13.2344 5.33523C13.1684 5.05698 12.9952 4.82073 12.7454 4.66998C12.6922 4.63323 11.4284 3.65223 11.3894 3.62148C10.9139 3.24048 10.2202 3.30648 9.83466 3.76248Z" fill="#605E5C"/>
</svg>
